<?xml version="1.0" encoding="UTF-8"?> <svg xmlns="http://www.w3.org/2000/svg" width="348" height="463" viewBox="0 0 348 463"><g fill="none" fill-rule="evenodd"><path d="M327.69 160.23c-3.6-5.44-13.27-3.49-30.94-2.81-7.74.3-16.57.35-24.11.32 2.34-10.06 2.85-22.4.2-37.51-6.47-36.85-29.98-45.31-17.66-59.93 2.37-2.81 3.28-1.99 10.54-6.46 7.27-4.47 5.86-8.2 11.19-11.54 5.32-3.35 11.57-3.2 12.18-4.63.61-1.44.2-5.25.2-5.25s3.24-2.3 2.85-8.65c-.21-3.51-3.38-5.83-14.93-5.61-10.27.19-43.16-2.46-58.65 2.65-10.11-7.59-26-15.32-46.89-12.49-36.85 4.99-45.05 2.65-52.1-3.92-7.08-6.61-11.27-4.94-8.92 1.29 2.23 5.92 13.89 18.59 46.5 15.58 25.51-2.35 39.94 6.13 47.46 13.41-.31.71-.61 1.43-.88 2.17-3.05-.99-10.27-2.74-17.54-.15-9.57 3.41-17.39 7.56-17.39 7.56s10.88 7.52 20.91 8.13c3.9.23 7.84-.38 11.22-1.21-.44 8.37.91 17.06 3.89 24.26 7.1 17.16 4.24 35.94-1.31 43.83-5.55 7.89-23.82 20.82-54.66 18.21-30.83-2.62-50.5 1.28-70.64 12.74-4.89 2.78-9.46 7.27-13.13 12.99-2.57.92-5.06 1.95-7.07 3.04-7.58 4.14-13.72 9.82-13.21 13.93.51 4.11 4.62 3.59 9.96 1.21.95-.43 2.1-.85 3.31-1.25a58.473 58.473 0 0115.85 0c.32 6.03-.07 26.93-1.41 29.96-2.2 4.96-8.03 9.34-13.47 10.27-5.44.93-8.94.01-13.12 5.31-4.18 5.31-14.38 38.5-18.32 42.23-2.06 1.95-2.02 3.95-1.8 5.48-.41.77-.88 1.43-1.78 1.91-3.48 1.85-6.45-1.97-6.45-1.97l-9.22 1.2S.83 295.4.08 297.65c-.58 1.72 1.32 1.87 3.13 1.4 15.9-4.17 36.53-15.1 42.1-22.98 2.87-4.06 5.28-26.24 10.04-31.14 2.42-2.49 7.22-5.26 12.82-7.76 4.37-1.52 10.23-2.91 14.44-3.98 10.49-2.68 21.55-6.02 27.71-9.95 2.99-1.5 6.16-4.16 9.09-9.44 3.18-5.74 4.89-10.62 8.17-16.35 4.49-7.84 9.92-12.53 15.83-14.56 12-4.13 15.8.72 32.98 5.16 38.05 9.81 67.76 3.08 88-10.18 4.23.32 8.44-.07 12.53-1.43 22.99-7.62 38.71-13.35 38.71-13.35s-16.93 20.73-21.58 24.19c-3.58 2.67-2.83 5.33-5.3 6.64-3.49 1.85-6.45-1.97-6.45-1.97l-9.23 1.2s-7.51 20.87-8.27 23.12c-.58 1.72 1.32 1.87 3.13 1.4 9.31-2.44 22.62-7.49 33.03-15.01 5.3-3.21 12.54-10.03 14.42-12.03 4.62-4.9 22.75-22.77 27.67-28.32 4.94-5.55 5.44-12.49 1.84-17.93l-17.2 15.85z" fill="#000" fill-rule="nonzero"></path><path d="M194.05 216.08c-11.74 0-24.09-1.65-36.72-4.91-5.43-1.4-9.61-2.85-12.98-4.01-4.29-1.49-7.13-2.47-9.84-2.47-1.68 0-3.54.37-5.83 1.16-4.41 1.52-8.37 5.28-11.75 11.19-1.57 2.73-2.76 5.29-4.02 8-1.21 2.6-2.46 5.3-4.1 8.26-3.2 5.77-7.11 9.81-11.94 12.34-3.04 1.89-7.08 3.72-12.25 5.56v120.16h153.61V207.08c-13.26 5.9-28.26 9-44.18 9z" fill="#DB4335" fill-rule="nonzero"></path><path d="M55.09 440.18v21.3H53.4l-2.41-3.92c-4.9 2.5-10.43 4.9-14.8 4.9-17.65 0-25.14-16.05-25.14-32.09 0-15.33 8.11-32.09 25.85-32.09 8.2 0 14.44 2.76 17.03 4.1v14.53h-1.87l-3.21-7.93c-3.48-5.08-5.53-7.13-12.3-7.84-7.75 0-12.12 4.81-14.44 12.84-1.16 4.1-2.05 10.07-2.05 16.4 0 8.56 1.34 13.64 2.05 16.31 2.05 7.93 6.24 12.84 14.35 12.84 4.1 0 8.91-2.58 10.52-5.79v-13.55l-7.04-2.05v-1.78h21.22v1.78l-6.07 2.04zm39.49 21.04v-1.78l6.77-2.05-5.17-16.31H76.12l-5.17 16.05 6.78 2.32v1.78H61.51v-1.78l6.42-2.58 19.34-57.67h3.03l19.25 57.94 6.51 2.32v1.78H94.58v-.02zm-8.65-50.28l-8.83 27.28h18.1l-9.27-27.28zm53.66 51.52c-8.29 0-15.42-2.14-18.18-3.39v-15.6h2.05l3.21 8.91c3.48 5.08 7.22 6.78 13.1 7.31 7.84 0 14.08-4.72 14.08-12.48 0-5.97-3.03-8.56-7.31-10.88-3.74-2.05-10.07-3.57-15.33-6.33-4.72-2.5-9.09-7.22-9.09-14.17 0-10.16 8.74-17.65 19.43-17.65 6.42 0 13.01 2.32 15.78 3.66v14.62h-1.87l-3.21-7.93c-2.23-3.92-4.01-6.78-10.79-7.58-6.33 0-12.48 3.48-12.48 10.88 0 6.06 2.41 8.91 7.67 11.41 3.39 1.6 9.36 3.3 13.82 5.53 5.44 2.76 10.16 6.95 10.16 14.8 0 10.6-8.29 18.89-21.04 18.89zm27.1-3.03l7.04-2.05v-54.11l-6.95-2.05v-1.78h42.79l.62 16.94h-1.87c-2.23-5.62-4.81-10.43-8.47-14.17h-18.01v25.41h9.09c3.21-2.05 5.79-6.24 6.6-11.32h1.96v25.5h-1.96c-.8-5.08-3.39-9.27-6.6-11.32h-9.09v27.99h19.43c4.01-4.55 7.49-11.59 9.36-17.03h1.78l-1.52 19.79h-44.21v-1.8h.01zm95.29 1.79h-42.52v-1.78l7.04-2.05v-54.11l-6.95-2.05v-1.78h22.37v1.78l-7.31 2.05v55.18h17.56c4.01-4.55 7.58-11.59 9.36-17.03h1.78l-1.33 19.79zm48.4 0h-42.52v-1.78l7.04-2.05v-54.11l-6.95-2.05v-1.78h22.37v1.78l-7.31 2.05v55.18h17.56c4.01-4.55 7.58-11.59 9.36-17.03h1.78l-1.33 19.79z" fill="#000" fill-rule="nonzero"></path><path d="M96.15 232.63H226.7v123.82H96.15z"></path><path d="M120.75 266.98h-5.27v-13.11h32.83c7.72 0 14.21 2.08 18.25 5.76 6.74 6 10.17 18.01 10.17 34.91 0 20.46-4.78 33.2-14.21 37.73-4.17 1.96-11.88 3.31-19.36 3.31h-27.68v-13.11h5.27v-55.49zm22.54 55.5c9.19 0 11.03-5.02 11.03-30.5 0-12.98-.98-19.85-3.31-22.54-1.47-1.96-3.92-2.57-9.8-2.45v55.49h2.08zm60.75 0h3.31v13.11h-26.58v-13.11h3.31v-33.56h-3.31v-12.98h23.28v46.54h-.01zm1.23-61.13c0 6-4.66 9.68-12.13 9.68-7.47 0-12.25-3.68-12.25-9.56 0-6 4.65-9.68 12.37-9.68 7.35 0 12.01 3.8 12.01 9.56z" fill-rule="nonzero" style="fill: rgb(255, 255, 255);"></path></g></svg> 